<?xml version="1.0" encoding="utf-8"?>
<!-- Generator: Adobe Illustrator 25.3.1, SVG Export Plug-In . SVG Version: 6.00 Build 0)  -->
<svg version="1.1" id="레이어_1" xmlns="http://www.w3.org/2000/svg" xmlns:xlink="http://www.w3.org/1999/xlink" x="0px"
	 y="0px" viewBox="0 0 35 35" style="enable-background:new 0 0 35 35;" xml:space="preserve">
<style type="text/css">
	.st0{fill:#396AFC;}
</style>
<g>
	<path class="st0" d="M29.1,20.2c-0.3-0.3-0.6-0.5-0.8-0.8c0,0,0,0,0-0.1c-0.6-0.9-0.8-3.1-0.9-4.4c0-0.2,0-0.4-0.1-0.6
		c0,0,0,0,0-0.1c-0.3-1.9-1-4.7-2.7-7.1c-1.2-1.6-2.7-2.7-4.4-3.2c-0.1-1.2-1.2-2.2-2.4-2.2s-2.3,1-2.4,2.2
		c-1.7,0.5-3.2,1.6-4.4,3.2c-1.7,2.3-2.4,5.1-2.7,7.1l0,0c0,0.2,0,0.4-0.1,0.6c-0.1,1.3-0.3,3.5-0.9,4.4c0,0,0,0,0,0.1
		c-0.2,0.3-0.5,0.6-0.8,0.8c-0.8,0.7-2.3,2-1,4.3c0.2,0.4,0.7,0.7,1.2,0.7H29c0.5,0,0.9-0.3,1.2-0.7C31.4,22.2,29.9,20.9,29.1,20.2z
		"/>
	<path class="st0" d="M20.4,27.9h-5.2c-0.2,0-0.3,0.1-0.4,0.2c-0.2,0.3-0.1,0.6-0.1,0.8l0,0c0.3,1.5,1.6,2.7,3.2,2.7s3-1.2,3.2-2.8
		l0,0c0-0.1,0.1-0.4-0.1-0.7C20.8,28.1,20.7,27.9,20.4,27.9z"/>
</g>
</svg>
