<?xml version="1.0" encoding="utf-8"?>
<!-- Generator: Adobe Illustrator 25.3.1, SVG Export Plug-In . SVG Version: 6.00 Build 0)  -->
<svg version="1.1" id="Capa_1" xmlns="http://www.w3.org/2000/svg" xmlns:xlink="http://www.w3.org/1999/xlink" x="0px" y="0px"
	 viewBox="0 0 391.8 391.8" style="enable-background:new 0 0 391.8 391.8;" xml:space="preserve">
<style type="text/css">
	.st0{fill:#D7443E;}
</style>
<g>
	<path class="st0" d="M-228.7,45.3c58.7,0.3,106.3,47.8,106.6,106.6c0,107.6-195.9,214.2-195.9,214.2S-514,258-514,151.9
		c0-58.9,47.7-106.6,106.6-106.6l0,0c36-0.3,69.7,17.8,89.3,48.1C-298.3,63.3-264.7,45.2-228.7,45.3z"/>
</g>
<g>
	<g>
		<path d="M279.7,49.4L279.7,49.4c-32.3-0.2-62.9,13.8-83.7,38.3c-20.7-24.6-51.4-38.6-83.7-38.3C51.6,49.4,2.5,98,2.5,157.9
			c0,102.7,181.2,202.9,188.5,206.8c3,2,6.8,2,9.8,0c7.3-3.9,188.5-102.7,188.5-206.8C389.3,98,340.2,49.4,279.7,49.4z M195.9,345.3
			C167.5,328.8,22.1,241.2,22.1,157.9c0-49.2,40.3-89.1,90.1-89.1c30.5-0.4,59,14.8,75.4,40.2c3.3,4.5,9.8,5.6,14.4,2.3
			c0.9-0.6,1.7-1.4,2.3-2.3c27.2-41.2,83.1-52.7,124.7-25.8c25.5,16.5,40.8,44.6,40.8,74.7C369.8,242.1,224.3,329.3,195.9,345.3z"/>
	</g>
</g>
</svg>
