<?xml version="1.0" encoding="utf-8"?>
<!-- Generator: Adobe Illustrator 25.3.1, SVG Export Plug-In . SVG Version: 6.00 Build 0)  -->
<svg version="1.1" id="Capa_1" xmlns="http://www.w3.org/2000/svg" xmlns:xlink="http://www.w3.org/1999/xlink" x="0px" y="0px"
	 viewBox="0 0 473.9 473.9" style="enable-background:new 0 0 473.9 473.9;" xml:space="preserve">
<style type="text/css">
	.st0{fill:#CCCCCC;}
</style>
<g>
	<path class="st0" d="M452.4,155.5H151.3c-10.3,0-18.7-8.4-18.7-18.7V95.2c0-10.3,8.4-18.7,18.7-18.7h301.1
		c10.3,0,18.7,8.4,18.7,18.7v41.5C471.1,147.1,462.7,155.5,452.4,155.5z"/>
	<path class="st0" d="M48,70.9c-3.1,0-6.2,0.3-9.1,0.9c-1.5,0.3-2.9,0.7-4.3,1.1c-2.8,0.9-5.5,2-8.1,3.4c-3.8,2.1-7.3,4.7-10.4,7.8
		s-5.7,6.6-7.8,10.4c-0.7,1.3-1.3,2.6-1.9,3.9c-1.1,2.7-2,5.5-2.6,8.5s-0.9,6-0.9,9.1c0,3.1,0.3,6.2,0.9,9.1c0.5,2.5,1.3,5,2.2,7.4
		c0.7,1.7,1.4,3.4,2.3,5.1c1.5,2.7,3.2,5.2,5.1,7.5c3.6,4.3,8.1,8,13.1,10.7c1.6,0.9,3.3,1.6,5.1,2.3c2.4,0.9,4.8,1.7,7.4,2.2
		c2.9,0.6,6,0.9,9.1,0.9c24.9,0,45.1-20.2,45.1-45.1C93.1,91.1,72.9,70.9,48,70.9z"/>
</g>
<g>
	<circle class="st0" cx="48" cy="243.9" r="45.1"/>
	<path class="st0" d="M452.4,283.4H151.3c-10.3,0-18.7-8.4-18.7-18.7v-41.5c0-10.3,8.4-18.7,18.7-18.7h301.1
		c10.3,0,18.7,8.4,18.7,18.7v41.5C471.1,275,462.7,283.4,452.4,283.4z"/>
</g>
<g>
	<circle class="st0" cx="48" cy="371.8" r="45.1"/>
	<path class="st0" d="M452.4,411.3H151.3c-10.3,0-18.7-8.4-18.7-18.7V351c0-10.3,8.4-18.7,18.7-18.7h301.1
		c10.3,0,18.7,8.4,18.7,18.7v41.5C471.1,402.9,462.7,411.3,452.4,411.3z"/>
</g>
</svg>
