<?xml version="1.0" encoding="utf-8"?>
<!-- Generator: Adobe Illustrator 25.3.1, SVG Export Plug-In . SVG Version: 6.00 Build 0)  -->
<svg version="1.1" id="Capa_1" xmlns="http://www.w3.org/2000/svg" xmlns:xlink="http://www.w3.org/1999/xlink" x="0px" y="0px"
	 viewBox="0 0 464 464" style="enable-background:new 0 0 464 464;" xml:space="preserve">
<style type="text/css">
	.st0{fill:#F9EDE0;}
	.st1{fill:#CCCCCC;}
	.st2{fill:#ADACAA;}
</style>
<g>
	<path class="st0" d="M305.9,451.9c-2.4,0.8-4.8,1.6-7.3,2.3C301,453.5,303.5,452.7,305.9,451.9z"/>
	<path class="st0" d="M318,447.5c-2.6,1-5.2,2.1-7.9,3C312.8,449.5,315.4,448.5,318,447.5z"/>
</g>
<circle class="st1" cx="232" cy="232" r="232"/>
<g>
	<path class="st0" d="M293.9,455.6c-2.4,0.7-4.8,1.3-7.2,1.9C289.1,456.9,291.5,456.2,293.9,455.6z"/>
	<path class="st0" d="M215.2,463.3c-2.8-0.2-5.7-0.4-8.4-0.7C209.5,462.9,212.4,463.1,215.2,463.3z"/>
	<path class="st0" d="M177.3,457.4c-2.4-0.6-4.8-1.2-7.2-1.9C172.5,456.2,174.9,456.9,177.3,457.4z"/>
	<path class="st0" d="M201.9,462c-2.5-0.3-5.1-0.7-7.6-1.1C196.9,461.3,199.4,461.7,201.9,462z"/>
	<path class="st0" d="M232,464c-4.3,0-8.5-0.1-12.7-0.4C223.5,463.9,227.7,464,232,464z"/>
	<path class="st0" d="M189.4,460c-2.4-0.4-4.9-0.9-7.3-1.5C184.6,459.1,187,459.6,189.4,460z"/>
	<path class="st0" d="M142.6,446.1c-3.6-1.5-7.2-3.1-10.7-4.8C135.4,443,139,444.6,142.6,446.1z"/>
	<path class="st0" d="M153.9,450.5c-2.6-1-5.3-2-7.9-3C148.6,448.5,151.2,449.5,153.9,450.5z"/>
	<path class="st0" d="M244.7,463.6c-4.2,0.2-8.4,0.4-12.7,0.4C236.3,464,240.5,463.9,244.7,463.6z"/>
	<path class="st0" d="M257.3,462.6c-2.8,0.3-5.6,0.5-8.4,0.7C251.6,463.1,254.5,462.9,257.3,462.6z"/>
	<path class="st0" d="M281.8,458.6c-2.4,0.5-4.8,1-7.3,1.5C277,459.6,279.4,459.1,281.8,458.6z"/>
	<path class="st0" d="M269.6,460.9c-2.5,0.4-5,0.8-7.6,1.1C264.6,461.7,267.1,461.3,269.6,460.9z"/>
	<path class="st0" d="M332,441.4c-3.5,1.7-7,3.3-10.6,4.8C325,444.6,328.5,443,332,441.4z"/>
	<path class="st0" d="M165.4,454.3c-2.5-0.7-4.9-1.5-7.3-2.3C160.5,452.7,163,453.5,165.4,454.3z"/>
	<path class="st0" d="M321.4,446.1c-1.1,0.5-2.3,0.9-3.4,1.3C319.1,447,320.3,446.6,321.4,446.1z"/>
	<path class="st0" d="M332.4,441.2c-0.1,0-0.2,0.1-0.3,0.1C332.1,441.3,332.2,441.3,332.4,441.2z"/>
	<path class="st0" d="M182.2,458.6c-1.6-0.4-3.3-0.7-4.9-1.1C178.9,457.8,180.5,458.2,182.2,458.6z"/>
	<path class="st0" d="M194.4,460.9c-1.7-0.3-3.3-0.6-5-0.9C191.1,460.3,192.7,460.6,194.4,460.9z"/>
	<path class="st0" d="M219.3,463.6c-1.4-0.1-2.7-0.2-4.1-0.3C216.6,463.4,217.9,463.6,219.3,463.6z"/>
	<path class="st0" d="M206.7,462.6c-1.6-0.2-3.2-0.4-4.8-0.6C203.5,462.2,205.1,462.4,206.7,462.6z"/>
	<path class="st0" d="M131.9,441.4c-0.1,0-0.2-0.1-0.3-0.1C131.7,441.3,131.8,441.3,131.9,441.4z"/>
	<path class="st0" d="M248.8,463.3c-1.4,0.1-2.7,0.2-4.1,0.3C246.1,463.6,247.4,463.4,248.8,463.3z"/>
	<path class="st0" d="M298.6,454.3c-1.6,0.5-3.1,0.9-4.7,1.3C295.5,455.2,297,454.7,298.6,454.3z"/>
	<path class="st0" d="M310.1,450.5c-1.4,0.5-2.8,1-4.2,1.4C307.3,451.4,308.7,451,310.1,450.5z"/>
	<path class="st0" d="M146,447.5c-1.1-0.4-2.3-0.9-3.4-1.3C143.7,446.6,144.9,447,146,447.5z"/>
	<path class="st0" d="M158.1,451.9c-1.4-0.5-2.8-0.9-4.2-1.4C155.3,451,156.7,451.4,158.1,451.9z"/>
	<path class="st0" d="M262.1,462c-1.6,0.2-3.2,0.4-4.8,0.6C258.9,462.4,260.5,462.2,262.1,462z"/>
	<path class="st0" d="M286.7,457.4c-1.6,0.4-3.3,0.8-4.9,1.1C283.5,458.2,285.1,457.8,286.7,457.4z"/>
	<path class="st0" d="M274.6,460c-1.6,0.3-3.3,0.6-5,0.9C271.3,460.6,272.9,460.3,274.6,460z"/>
	<path class="st0" d="M170.1,455.6c-1.6-0.4-3.1-0.9-4.7-1.3C167,454.7,168.5,455.2,170.1,455.6z"/>
</g>
<path class="st2" d="M285.1,248c25.8-17.2,42.9-46.6,42.9-80c0-53-43-96-96-96s-96,43-96,96c0,33.4,17,62.7,42.9,80c0,0,0,0,0,0
	c0,0,0,0,0,0c-61.9,18.6-110,68.9-125.6,132l0,0c2.5,3,5.2,6,7.8,8.9c0.6,0.7,1.3,1.4,2,2.1c2.1,2.2,4.2,4.4,6.3,6.5
	c0.9,0.9,1.8,1.7,2.7,2.6c2,1.9,4,3.8,6,5.6c1,0.9,2,1.8,3.1,2.7c2,1.7,4,3.4,6.1,5.1c1.1,0.9,2.2,1.7,3.3,2.6
	c2.1,1.6,4.2,3.2,6.4,4.7c1.1,0.8,2.2,1.6,3.3,2.4c2.3,1.6,4.6,3.1,6.9,4.6c1,0.7,2.1,1.4,3.1,2c2.7,1.7,5.4,3.2,8.2,4.8
	c0.7,0.4,1.4,0.8,2.2,1.2c3.6,2,7.2,3.8,10.9,5.6c0.1,0,0.2,0.1,0.3,0.1c3.5,1.7,7.1,3.3,10.7,4.8c1.1,0.5,2.3,0.9,3.4,1.3
	c2.6,1,5.2,2.1,7.9,3c1.4,0.5,2.8,1,4.2,1.4c2.4,0.8,4.8,1.6,7.3,2.3c1.6,0.5,3.1,0.9,4.7,1.3c2.4,0.7,4.8,1.3,7.2,1.9
	c1.6,0.4,3.3,0.8,4.9,1.1c2.4,0.5,4.8,1,7.3,1.5c1.6,0.3,3.3,0.6,5,0.9c2.5,0.4,5,0.8,7.6,1.1c1.6,0.2,3.2,0.4,4.8,0.6
	c2.8,0.3,5.6,0.5,8.4,0.7c1.4,0.1,2.7,0.2,4.1,0.3c4.2,0.2,8.4,0.4,12.7,0.4s8.5-0.1,12.7-0.4c1.4-0.1,2.7-0.2,4.1-0.3
	c2.8-0.2,5.7-0.4,8.4-0.7c1.6-0.2,3.2-0.4,4.8-0.6c2.5-0.3,5.1-0.7,7.6-1.1c1.7-0.3,3.3-0.6,5-0.9c2.4-0.4,4.9-0.9,7.3-1.5
	c1.6-0.4,3.3-0.7,4.9-1.1c2.4-0.6,4.8-1.2,7.2-1.9c1.6-0.4,3.1-0.9,4.7-1.3c2.5-0.7,4.9-1.5,7.3-2.3c1.4-0.5,2.8-0.9,4.2-1.4
	c2.6-1,5.3-2,7.9-3c1.1-0.4,2.3-0.9,3.4-1.3c3.6-1.5,7.1-3.1,10.6-4.8c0.1,0,0.2-0.1,0.3-0.1c3.7-1.8,7.3-3.6,10.9-5.6
	c0.7-0.4,1.4-0.8,2.2-1.2c2.8-1.6,5.5-3.1,8.2-4.8c1.1-0.6,2.1-1.3,3.1-2c2.3-1.5,4.6-3,6.9-4.6c1.1-0.8,2.2-1.6,3.3-2.4
	c2.2-1.5,4.3-3.1,6.4-4.7c1.1-0.8,2.2-1.7,3.3-2.6c2.1-1.6,4.1-3.3,6.1-5.1c1-0.9,2.1-1.8,3.1-2.7c2-1.8,4.1-3.7,6-5.6
	c0.9-0.9,1.8-1.7,2.7-2.6c2.1-2.1,4.2-4.3,6.3-6.5c0.7-0.7,1.3-1.4,2-2.1c2.7-2.9,5.3-5.9,7.8-8.9l0,0
	C395.2,316.8,347,266.6,285.1,248z"/>
</svg>
