<?xml version="1.0" encoding="utf-8"?>
<!-- Generator: Adobe Illustrator 25.3.1, SVG Export Plug-In . SVG Version: 6.00 Build 0)  -->
<svg version="1.1" id="Capa_1" xmlns="http://www.w3.org/2000/svg" xmlns:xlink="http://www.w3.org/1999/xlink" x="0px" y="0px"
	 viewBox="0 0 456.8 456.8" style="enable-background:new 0 0 456.8 456.8;" xml:space="preserve">
<style type="text/css">
	.st0{fill:#CCCCCC;}
</style>
<g>
	<g>
		<path class="st0" d="M448.9,218.5c-0.9-1.2-23.1-28.9-61-56.8c-50.7-37.3-105.9-56.9-159.6-56.9c-53.7,0-108.8,19.7-159.6,56.9
			c-37.9,27.9-60.1,55.6-61,56.8L0,228.4l7.8,9.9c0.9,1.2,23.1,28.9,61,56.8c50.7,37.3,105.9,56.9,159.6,56.9
			c53.7,0,108.8-19.7,159.6-56.9c37.9-27.9,60.1-55.6,61-56.8l7.8-9.9L448.9,218.5z M228.4,315c-47.8,0-86.6-38.9-86.6-86.6
			c0-7.5,1-14.8,2.7-21.7l-19.8-3.3c-1.9,8-3,16.4-3,25c0,30.9,13.2,58.7,34.2,78.2c-27.1-10-50.1-24-67.4-36.7
			c-21.5-15.7-37.6-31.6-46.8-41.5c9.2-9.9,25.3-25.8,46.8-41.5c17.4-12.7,40.4-26.7,67.4-36.7l13.3,15
			c15.5-14.5,36.3-23.4,59.2-23.4c47.8,0,86.6,38.9,86.6,86.6S276.2,315,228.4,315z M368.3,269.9c-17.4,12.7-40.4,26.7-67.4,36.7
			c21-19.5,34.2-47.3,34.2-78.2s-13.2-58.7-34.2-78.2c27.1,10,50.1,24,67.4,36.7c21.5,15.7,37.6,31.6,46.8,41.5
			C405.9,238.3,389.8,254.2,368.3,269.9z"/>
		<path class="st0" d="M173.3,211.6c-1.6,5.3-2.5,11-2.5,16.8c0,31.8,25.8,57.6,57.6,57.6c31.8,0,57.6-25.8,57.6-57.6
			s-25.8-57.6-57.6-57.6c-15.5,0-29.6,6.1-39.9,16.1l28.4,32L173.3,211.6z"/>
	</g>
</g>
</svg>
