<?xml version="1.0" encoding="utf-8"?>
<!-- Generator: Adobe Illustrator 25.4.0, SVG Export Plug-In . SVG Version: 6.00 Build 0)  -->
<svg version="1.1" id="Capa_1" xmlns="http://www.w3.org/2000/svg" xmlns:xlink="http://www.w3.org/1999/xlink" x="0px" y="0px"
	 viewBox="0 0 98.3 98.3" style="enable-background:new 0 0 98.3 98.3;" xml:space="preserve">
<style type="text/css">
	.st0{fill:#FFFFFF;}
</style>
<g>
	<g>
		<path class="st0" d="M80.1,38.6c0-15.5-18-28.1-40.1-28.1C18,10.5,0,23.1,0,38.6c0,8.8,5.6,16.9,15.5,22.2
			c-1.6,6-4.3,13.8-7.7,17.9c-0.2,0.3-0.3,0.7-0.1,1c0.2,0.3,0.5,0.5,0.8,0.5c0,0,0.1,0,0.1,0c0.8-0.1,18.4-1.8,29.6-13.6
			c0.6,0,1.2,0,1.9,0C62.2,66.7,80.1,54.1,80.1,38.6z"/>
		<path class="st0" d="M98.3,46.2c0-10.3-8-19.3-19.8-24.2c4.4,5,7,11,7,17.4c0,17.8-19.8,32.2-44.2,32.2c0,0,0,0,0,0
			c5.2,1.7,10.9,2.7,17,2.7c0.6,0,1.2,0,1.9,0C71.4,86,89,87.8,89.8,87.8c0,0,0.1,0,0.1,0c0.3,0,0.6-0.2,0.8-0.5
			c0.2-0.3,0.1-0.7-0.1-1c-3.4-4.1-6.1-11.9-7.7-17.9C92.7,63.1,98.3,55,98.3,46.2z"/>
	</g>
</g>
</svg>
