<?xml version="1.0" encoding="utf-8"?>
<!-- Generator: Adobe Illustrator 25.3.1, SVG Export Plug-In . SVG Version: 6.00 Build 0)  -->
<svg version="1.1" id="레이어_1" xmlns="http://www.w3.org/2000/svg" xmlns:xlink="http://www.w3.org/1999/xlink" x="0px"
	 y="0px" viewBox="0 0 50 50" style="enable-background:new 0 0 50 50;" xml:space="preserve">
<style type="text/css">
	.st0{fill:#EFDAB9;}
</style>
<g>
	<g>
		<path class="st0" d="M25,1.5c-6.7,0-12.2,5.5-12.2,12.2S18.3,25.9,25,25.9s12.2-5.5,12.2-12.2S31.7,1.5,25,1.5z"/>
	</g>
</g>
<g>
	<g>
		<path class="st0" d="M45.9,35.7c-0.3-0.8-0.7-1.5-1.2-2.2c-2.5-3.6-6.2-6-10.5-6.6c-0.5-0.1-1.1,0.1-1.5,0.4
			c-2.2,1.7-4.9,2.5-7.7,2.5s-5.4-0.9-7.7-2.5c-0.4-0.3-1-0.5-1.5-0.4c-4.3,0.6-8.1,3-10.5,6.6c-0.5,0.7-0.9,1.5-1.2,2.2
			c-0.2,0.3-0.1,0.7,0.1,1c0.4,0.7,1,1.5,1.4,2.1c0.7,1,1.5,1.9,2.5,2.8c0.7,0.7,1.6,1.4,2.5,2.1c4.2,3.1,9.3,4.8,14.5,4.8
			s10.3-1.7,14.5-4.8c0.9-0.6,1.7-1.4,2.5-2.1c0.9-0.9,1.7-1.8,2.5-2.8c0.5-0.7,1-1.4,1.4-2.1C46.1,36.4,46.1,36,45.9,35.7z"/>
	</g>
</g>
</svg>
