<?xml version="1.0" encoding="utf-8"?>
<!-- Generator: Adobe Illustrator 25.3.1, SVG Export Plug-In . SVG Version: 6.00 Build 0)  -->
<svg version="1.1" id="Capa_1" xmlns="http://www.w3.org/2000/svg" xmlns:xlink="http://www.w3.org/1999/xlink" x="0px" y="0px"
	 viewBox="0 0 426.7 426.7" style="enable-background:new 0 0 426.7 426.7;" xml:space="preserve">
<style type="text/css">
	.st0{fill:#396AFC;}
</style>
<g>
	<g>
		<g>
			<path class="st0" d="M133.5,352.2c-12.9-23.1-19.7-51.5-19.7-82.2c0-51.6,44.7-93.7,99.5-93.7c54.9,0,99.5,42,99.5,93.7
				c0,5.9,4.8,10.7,10.7,10.7s10.7-4.8,10.7-10.7c0-63.5-54.2-115-120.9-115S92.5,206.6,92.5,270c0,34.3,7.8,66.5,22.5,92.7
				c14.4,25.7,24.4,37.5,42.9,56.2c2.1,2.1,4.8,3.2,7.6,3.2c2.7,0,5.4-1,7.4-3.2c4.3-4.1,4.3-10.9,0.1-15
				C156.5,387.3,147.3,376.7,133.5,352.2z"/>
			<path class="st0" d="M94.7,51.4c36.6-19.9,76.5-30.1,118.8-30.1c42.5,0,78,9.1,118.8,30.2c1.6,0.7,3.2,1.2,4.9,1.2l0,0
				c3.8,0,7.6-2.1,9.5-5.8c2.7-5.2,0.6-11.7-4.6-14.4C298.6,10,259,0,213.5,0c-45.9,0-89.3,11-129.1,32.6c-5.2,2.9-7,9.3-4.3,14.5
				C83.1,52.4,89.5,54.2,94.7,51.4z"/>
			<path class="st0" d="M212.6,103c-68.8,0-131.7,38.5-160.2,98c-9.7,20.2-14.6,43.4-14.6,69c0,28.8,5.1,56.3,15.6,84.4
				c2.1,5.5,8.2,8.3,13.8,6.3c5.5-2.1,8.3-8.2,6.3-13.8c-12.7-34-14.2-60.3-14.2-76.9c0-22.4,4.2-42.6,12.5-59.8
				c25-52.3,80.3-86,141-86c85.2,0,154.6,65.4,154.6,145.8c0,22.9-19.9,41.5-44.4,41.5s-44.4-18.7-44.4-41.5
				c0-34.7-29.4-62.8-65.7-62.8s-65.7,28.2-65.7,62.8c0,42.1,16.4,81.7,46.2,111.4c23,22.9,45.2,35.5,79.3,44.8
				c0.9,0.3,1.8,0.4,2.8,0.4c4.7,0,9-3.1,10.2-7.8c1.6-5.7-1.8-11.5-7.5-13.1c-30.1-8.2-49.7-19.3-69.9-39.4
				c-25.7-25.6-39.9-59.8-39.9-96.2c0-22.9,19.9-41.5,44.4-41.5s44.4,18.7,44.4,41.5c0,34.7,29.5,62.8,65.7,62.8
				s65.7-28.2,65.7-62.8C388.5,178,309.5,103,212.6,103z"/>
			<path class="st0" d="M403.4,147.2c-21.2-29.7-48.1-52.9-80-69.3c-67.2-34.6-153-34.5-220.1,0.2c-32,16.5-59,40-80.1,69.9
				c-3.4,4.8-2.2,11.4,2.6,14.8c1.9,1.3,4.1,1.9,6.2,1.9c3.3,0,6.6-1.5,8.7-4.4c19.1-27.1,43.5-48.3,72.4-63.3
				c61.1-31.6,139.3-31.7,200.5-0.2c28.8,14.7,53.1,35.8,72.3,62.7c3.4,4.8,10.1,5.9,14.9,2.5C405.7,158.6,406.8,152,403.4,147.2z"
				/>
			<path class="st0" d="M340.6,359.3c-8.5,1.5-17.2,2-22.3,2c-21.3,0-39-5-54.1-15.3c-25.9-17.6-41.4-46-41.4-75.9
				c0-5.9-4.8-10.7-10.7-10.7s-10.7,4.8-10.7,10.7c0,37.1,19,72.1,50.7,93.7c18.5,12.5,40.7,18.9,66.1,18.9c3,0,13.5-0.1,26-2.3
				c5.8-1.1,9.7-6.6,8.6-12.4S346.3,358.2,340.6,359.3z"/>
		</g>
	</g>
</g>
</svg>
