<?xml version="1.0" encoding="utf-8"?>
<!-- Generator: Adobe Illustrator 25.3.1, SVG Export Plug-In . SVG Version: 6.00 Build 0)  -->
<svg version="1.1" id="Capa_1" xmlns="http://www.w3.org/2000/svg" xmlns:xlink="http://www.w3.org/1999/xlink" x="0px" y="0px"
	 viewBox="0 0 836.1 836.1" style="enable-background:new 0 0 836.1 836.1;" xml:space="preserve">
<style type="text/css">
	.st0{fill:#396AFC;}
</style>
<g>
	<path class="st0" d="M827.1,263.7c0-35.6-7-70.1-20.7-102.7c-13.3-31.4-32.3-59.6-56.5-83.8S697.5,34,666.1,20.7
		C633.6,6.9,599,0,563.4,0s-70.1,7-102.7,20.7C429.3,34,401.1,53,376.9,77.2s-43.2,52.4-56.5,83.8c-13.8,32.5-20.7,67.1-20.7,102.7
		c0,44.5,11.2,88.1,32.5,126.9L16.5,706c-7.3,7.3-9.6,18.4-5.1,28.9c0.9,2.2,2.4,4.2,4.1,5.9l70.7,70.7c1.7,1.7,3.7,3.1,5.9,4.1
		c10.5,4.5,21.6,2.3,28.9-5.1l43.7-43.7l62.9,62.9c1.7,1.7,3.7,3.1,5.9,4.1c10.5,4.5,21.6,2.3,28.9-5.1l69.7-69.7
		c1.7-1.7,3.1-3.7,4.1-5.9c4.5-10.5,2.3-21.6-5.1-28.9l-61.9-61.9L436.4,495c38.7,21.3,82.4,32.5,126.9,32.5
		c35.6,0,70.1-7,102.7-20.7c31.4-13.3,59.6-32.3,83.8-56.5c24.2-24.2,43.2-52.4,56.5-83.8C820.1,333.8,827.1,299.3,827.1,263.7z
		 M655.8,356.2c-24.7,24.7-57.6,38.3-92.5,38.3c-34.9,0-67.8-13.6-92.5-38.3c-24.7-24.7-38.4-57.6-38.4-92.5
		c0-35,13.6-67.8,38.3-92.5s57.6-38.3,92.5-38.3c34.9,0,67.8,13.6,92.5,38.3s38.3,57.6,38.3,92.5
		C694.2,298.6,680.6,331.5,655.8,356.2z"/>
</g>
</svg>
