<?xml version="1.0" encoding="utf-8"?>
<!-- Generator: Adobe Illustrator 25.3.1, SVG Export Plug-In . SVG Version: 6.00 Build 0)  -->
<svg version="1.1" id="Capa_1" xmlns="http://www.w3.org/2000/svg" xmlns:xlink="http://www.w3.org/1999/xlink" x="0px" y="0px"
	 viewBox="0 0 512 512" style="enable-background:new 0 0 512 512;" xml:space="preserve">
<style type="text/css">
	.st0{fill:#396AFC;}
</style>
<g>
	<path class="st0" d="M263.4,471.6c-57.6,0-111.7-22.4-152.4-63.1S47.8,313.6,47.8,256S70.2,144.3,111,103.6s94.9-63.1,152.4-63.1
		s111.7,22.4,152.4,63.1S479,198.4,479,256s-22.4,111.7-63.1,152.4S321,471.6,263.4,471.6L263.4,471.6z M263.4,67.4
		C159.4,67.4,74.8,152,74.8,256s84.6,188.6,188.6,188.6S452.1,360,452.1,256S367.4,67.4,263.4,67.4z"/>
	<path class="st0" d="M263.4,242.5c-18.6,0-33.7-15.1-33.7-33.7s15.1-33.7,33.7-33.7c18.6,0,33.7,15.1,33.7,33.7
		c0,7.4,6,13.5,13.5,13.5s13.5-6,13.5-13.5c0-28.8-20.2-53-47.2-59.1v-15c0-7.4-6-13.5-13.5-13.5c-7.4,0-13.5,6-13.5,13.5v15
		c-27,6.1-47.2,30.3-47.2,59.1c0,33.4,27.2,60.6,60.6,60.6c18.6,0,33.7,15.1,33.7,33.7c0,18.6-15.1,33.7-33.7,33.7
		c-18.6,0-33.7-15.1-33.7-33.7c0-7.4-6-13.5-13.5-13.5s-13.5,6-13.5,13.5c0,28.8,20.2,53,47.2,59.1v15c0,7.4,6,13.5,13.5,13.5
		c7.4,0,13.5-6,13.5-13.5v-15c27-6.1,47.2-30.3,47.2-59.1C324,269.7,296.8,242.5,263.4,242.5z"/>
</g>
</svg>
