<?xml version="1.0" encoding="utf-8"?>
<!-- Generator: Adobe Illustrator 25.3.1, SVG Export Plug-In . SVG Version: 6.00 Build 0)  -->
<svg version="1.1" id="레이어_1" xmlns="http://www.w3.org/2000/svg" xmlns:xlink="http://www.w3.org/1999/xlink" x="0px"
	 y="0px" viewBox="0 0 50 50" style="enable-background:new 0 0 50 50;" xml:space="preserve">
<style type="text/css">
	.st0{fill:#396AFC;}
</style>
<g>
	<path class="st0" d="M37.3,21.5c-0.2-0.2-0.5-0.4-0.7-0.6L19.4,3.7c-1.7-1.7-4.4-1.7-6.1,0c-1.7,1.7-1.7,4.4,0,6.1l14.8,14.8
		L13.3,39.5c-1.7,1.7-1.7,4.4,0,6.1c0.8,0.8,1.9,1.3,3,1.3c1.1,0,2.2-0.4,3-1.3l17.3-17.3c0.3-0.2,0.5-0.4,0.7-0.6
		c0.9-0.9,1.3-2,1.3-3.1C38.6,23.5,38.2,22.4,37.3,21.5z"/>
</g>
<g>
	<path class="st0" d="M-50.4,39.1c0.3-0.3,0.6-0.5,0.9-0.7l21.6-21.6c2.1-2.1,5.5-2.1,7.6,0c2.1,2.1,2.1,5.5,0,7.6l-18.6,18.6
		l18.7,18.7c2.1,2.1,2.1,5.5,0,7.6c-1.1,1.1-2.4,1.6-3.8,1.6s-2.8-0.5-3.8-1.6l-21.7-21.7c-0.3-0.2-0.6-0.4-0.9-0.7
		c-1.1-1.1-1.6-2.5-1.6-3.9C-52,41.6-51.5,40.2-50.4,39.1z"/>
</g>
</svg>
