<?xml version="1.0" encoding="utf-8"?>
<!-- Generator: Adobe Illustrator 25.3.1, SVG Export Plug-In . SVG Version: 6.00 Build 0)  -->
<svg version="1.1" id="레이어_1" xmlns="http://www.w3.org/2000/svg" xmlns:xlink="http://www.w3.org/1999/xlink" x="0px"
	 y="0px" viewBox="0 0 50 50" style="enable-background:new 0 0 50 50;" xml:space="preserve">
<style type="text/css">
	.st0{fill:#396AFC;}
</style>
<g>
	<path class="st0" d="M11.3,21.3c0.2-0.2,0.5-0.4,0.7-0.6L29.5,3.2c1.7-1.7,4.5-1.7,6.2,0c1.7,1.7,1.7,4.5,0,6.2l-15,15l15.1,15.1
		c1.7,1.7,1.7,4.5,0,6.2c-0.9,0.9-2,1.3-3.1,1.3c-1.1,0-2.2-0.4-3.1-1.3L12,28.2c-0.3-0.2-0.5-0.4-0.7-0.6c-0.9-0.9-1.3-2-1.3-3.2
		C10,23.3,10.4,22.1,11.3,21.3z"/>
</g>
</svg>
