<svg id="Capa_1" enable-background="new 0 0 497.579 497.579" height="512" viewBox="0 0 497.579 497.579" width="512" xmlns="http://www.w3.org/2000/svg"><g><path d="m440.902 462.907h-142.491l14.416-223.951c0-3.558 2.884-6.442 6.442-6.442h115.191c3.558 0 6.442 2.884 6.442 6.442z" fill="#99e6fc"/><path d="m209.637 466.907h-152.96v-170.351c0-3.558 2.884-6.442 6.442-6.442h115.191c3.558 0 6.442 2.884 6.442 6.442z" fill="#bbec6c"/><path d="m389.325 414.908c-14.354 0-25.991-11.636-25.991-25.991v-149.96c0-3.558 2.884-6.442 6.442-6.442h-50.507c-3.558 0-6.442 2.884-6.442 6.442v175.951 48h50.507 77.568v-48z" fill="#62dbfb"/><path d="m134.588 414.908c-15.135 0-27.403-12.269-27.403-27.403v-90.948c0-3.558 2.884-6.442 6.442-6.442h-50.508c-3.558 0-6.442 2.884-6.442 6.442v118.351 52h50.507 77.568v-52z" fill="#a2e62e"/><path d="m254.062 4.24 15.943 32.303c.856 1.735 2.512 2.938 4.427 3.216l35.649 5.18c4.823.701 6.748 6.627 3.259 10.029l-25.796 25.144c-1.386 1.351-2.018 3.297-1.691 5.204l6.09 35.505c.824 4.803-4.218 8.466-8.531 6.198l-31.885-16.763c-1.713-.901-3.759-.901-5.472 0l-31.885 16.763c-4.314 2.268-9.355-1.395-8.531-6.198l6.09-35.505c.327-1.907-.305-3.854-1.691-5.204l-25.798-25.143c-3.49-3.402-1.564-9.328 3.259-10.029l35.649-5.18c1.915-.278 3.571-1.481 4.427-3.216l15.942-32.304c2.157-4.37 8.388-4.37 10.545 0z" fill="#fee45a"/><g><path d="m375.606 71.836h-10.741c-4.143 0-7.5-3.358-7.5-7.5s3.357-7.5 7.5-7.5h10.741c4.143 0 7.5 3.358 7.5 7.5s-3.358 7.5-7.5 7.5z" fill="#fee45a"/></g><g><path d="m351.94 19.443c-2.853 0-5.579-1.636-6.834-4.402-1.712-3.771-.042-8.217 3.729-9.929l9.781-4.439c3.771-1.711 8.218-.041 9.929 3.73 1.712 3.771.042 8.217-3.729 9.929l-9.781 4.439c-1.005.456-2.059.672-3.095.672z" fill="#fee45a"/></g><g><path d="m361.711 128.671c-1.036 0-2.089-.216-3.095-.672l-9.781-4.439c-3.771-1.712-5.441-6.158-3.729-9.929 1.71-3.771 6.154-5.441 9.929-3.73l9.781 4.439c3.771 1.712 5.441 6.158 3.729 9.929-1.255 2.766-3.981 4.402-6.834 4.402z" fill="#fee45a"/></g><g><path d="m133.714 71.836h-10.741c-4.143 0-7.5-3.358-7.5-7.5s3.357-7.5 7.5-7.5h10.741c4.143 0 7.5 3.358 7.5 7.5s-3.357 7.5-7.5 7.5z" fill="#fee45a"/></g><g><path d="m146.639 19.443c-1.036 0-2.089-.216-3.095-.672l-9.781-4.439c-3.771-1.712-5.441-6.158-3.729-9.929 1.71-3.771 6.153-5.442 9.929-3.73l9.781 4.439c3.771 1.712 5.441 6.158 3.729 9.929-1.255 2.766-3.981 4.402-6.834 4.402z" fill="#fee45a"/></g><g><path d="m136.868 128.671c-2.853 0-5.579-1.636-6.834-4.402-1.712-3.771-.042-8.217 3.729-9.929l9.781-4.439c3.772-1.71 8.218-.042 9.929 3.73 1.712 3.771.042 8.217-3.729 9.929l-9.781 4.439c-1.006.456-2.059.672-3.095.672z" fill="#fee45a"/></g><path d="m312.827 463.907h-128.075v-293.228c0-3.558 2.884-6.442 6.442-6.442h115.191c3.558 0 6.442 2.884 6.442 6.442z" fill="#f37c7c"/><path d="m265.131 414.908c-16.498 0-29.872-13.374-29.872-29.872v-214.357c0-3.558 2.884-6.442 6.442-6.442h-50.507c-3.558 0-6.442 2.884-6.442 6.442v244.228 49h50.507 77.568v-49h-47.696z" fill="#ee6161"/><path d="m485.339 434.907h-473.099c-6.661 0-12.06 5.4-12.06 12.06v40.179c0 5.761 4.671 10.432 10.432 10.432h476.355c5.761 0 10.432-4.671 10.432-10.432v-40.179c0-6.66-5.399-12.06-12.06-12.06z" fill="#d7d0d6"/></g></svg>