<?xml version="1.0" encoding="utf-8"?>
<!-- Generator: Adobe Illustrator 25.3.1, SVG Export Plug-In . SVG Version: 6.00 Build 0)  -->
<svg version="1.1" id="레이어_1" xmlns="http://www.w3.org/2000/svg" xmlns:xlink="http://www.w3.org/1999/xlink" x="0px"
	 y="0px" viewBox="0 0 512 512" style="enable-background:new 0 0 512 512;" xml:space="preserve">
<style type="text/css">
	.st0{fill:#396AFC;}
	.st1{fill:#FFFFFF;}
</style>
<path class="st0" d="M471,254c0,117.1-94.9,212-212,212S47,371.1,47,254S141.9,42,259,42S471,136.9,471,254z"/>
<path class="st1" d="M307.2,247.3c19.5-14.7,32.1-38,32.1-64.2c0-44.3-36-80.3-80.3-80.3c-44.3,0-80.3,36-80.3,80.3
	c0,26.2,12.6,49.5,32.1,64.2c-52.1,19.6-89.4,69.9-89.4,128.8h24.8c0-62.1,50.6-112.7,112.7-112.7c62.1,0,112.7,50.6,112.7,112.7
	h24.8C396.5,317.3,359.3,266.9,307.2,247.3z M203.6,183.2c0-30.6,24.9-55.4,55.4-55.4s55.4,24.9,55.4,55.4s-24.9,55.4-55.4,55.4
	S203.6,213.7,203.6,183.2z"/>
</svg>
