<?xml version="1.0" encoding="utf-8"?>
<!-- Generator: Adobe Illustrator 25.3.1, SVG Export Plug-In . SVG Version: 6.00 Build 0)  -->
<svg version="1.1" id="Capa_1" xmlns="http://www.w3.org/2000/svg" xmlns:xlink="http://www.w3.org/1999/xlink" x="0px" y="0px"
	 viewBox="0 0 469.3 469.3" style="enable-background:new 0 0 469.3 469.3;" xml:space="preserve">
<style type="text/css">
	.st0{fill:#CCCCCC;}
</style>
<g>
	<g>
		<g>
			<path class="st0" d="M384,384V234.7c0-82.3-67-149.3-149.3-149.3s-149.3,67-149.3,149.3V384c-23.5,0-42.7,19.1-42.7,42.7v32
				c0,5.9,4.8,10.7,10.7,10.7H416c5.9,0,10.7-4.8,10.7-10.7v-32C426.7,403.1,407.5,384,384,384z M106.7,234.7
				c0-70.6,57.4-128,128-128s128,57.4,128,128V384h-256C106.7,384,106.7,234.7,106.7,234.7z M405.3,448H64v-21.3
				c0-11.8,9.6-21.3,21.3-21.3H384c11.8,0,21.3,9.6,21.3,21.3V448z"/>
			<path class="st0" d="M234.7,64c5.9,0,10.7-4.8,10.7-10.7V10.7c0-5.9-4.8-10.7-10.7-10.7S224,4.8,224,10.7v42.7
				C224,59.2,228.8,64,234.7,64z"/>
			<path class="st0" d="M341.3,74.7c2.7,0,5.5-1,7.5-3.1l32-32c4.2-4.2,4.2-10.9,0-15.1c-4.2-4.2-10.9-4.2-15.1,0l-32,32
				c-4.2,4.2-4.2,10.9,0,15.1C335.9,73.6,338.6,74.7,341.3,74.7z"/>
			<path class="st0" d="M120.4,71.5c2.1,2.1,4.8,3.1,7.5,3.1s5.5-1,7.5-3.1c4.2-4.2,4.2-10.9,0-15.1l-32-32
				c-4.2-4.2-10.9-4.2-15.1,0c-4.2,4.2-4.2,10.9,0,15.1L120.4,71.5z"/>
			<path class="st0" d="M468.2,123.2c-2.6-5.3-9-7.4-14.3-4.8l-42.7,21.3c-5.3,2.6-7.4,9-4.8,14.3c1.9,3.7,5.6,5.9,9.5,5.9
				c1.6,0,3.2-0.4,4.8-1.1l42.7-21.3C468.7,134.9,470.8,128.5,468.2,123.2z"/>
			<path class="st0" d="M53.3,160c3.9,0,7.7-2.2,9.5-5.9c2.6-5.3,0.5-11.7-4.8-14.3l-42.7-21.3c-5.3-2.6-11.7-0.5-14.3,4.8
				c-2.6,5.3-0.5,11.7,4.8,14.3l42.7,21.3C50.1,159.6,51.7,160,53.3,160z"/>
			<path class="st0" d="M234.7,128C175.9,128,128,175.9,128,234.7c0,5.9,4.8,10.7,10.7,10.7s10.7-4.8,10.7-10.7
				c0-47.1,38.3-85.3,85.3-85.3c5.9,0,10.7-4.8,10.7-10.7S240.6,128,234.7,128z"/>
		</g>
	</g>
</g>
</svg>
