<?xml version="1.0" encoding="utf-8"?>
<!-- Generator: Adobe Illustrator 25.3.1, SVG Export Plug-In . SVG Version: 6.00 Build 0)  -->
<svg version="1.1" id="레이어_1" xmlns="http://www.w3.org/2000/svg" xmlns:xlink="http://www.w3.org/1999/xlink" x="0px"
	 y="0px" viewBox="0 0 512 512" style="enable-background:new 0 0 512 512;" xml:space="preserve">
<style type="text/css">
	.st0{fill:#396AFC;}
</style>
<path class="st0" d="M155.6,192.1c0,0,0-12.7,0-28.4s-12.7-28.4-28.4-28.4H42c-15.7,0-28.4,12.7-28.4,28.4s12.7,28.4,28.4,28.4
	H155.6z"/>
<path class="st0" d="M470,135.2h-85.2c-15.7,0-28.4,12.7-28.4,28.4v28.4H470c15.7,0,28.4-12.7,28.4-28.4S485.7,135.2,470,135.2z"/>
<path class="st0" d="M190.9,220.5H42v42.6h134.8l11.4-35.2C188.9,225.4,189.9,222.9,190.9,220.5z"/>
<path class="st0" d="M323.9,227.9l11.4,35.2H470v-42.6H321.1C322.1,222.9,323.1,225.4,323.9,227.9z"/>
<path class="st0" d="M256,206.3c-19.2,0-35.4,12.7-40.8,30.2l-45.4,140.3h172.4l-45.4-140.3C291.4,219,275.2,206.3,256,206.3z"/>
</svg>
