<?xml version="1.0" encoding="utf-8"?>
<!-- Generator: Adobe Illustrator 25.3.1, SVG Export Plug-In . SVG Version: 6.00 Build 0)  -->
<svg version="1.1" id="Capa_1" xmlns="http://www.w3.org/2000/svg" xmlns:xlink="http://www.w3.org/1999/xlink" x="0px" y="0px"
	 viewBox="0 0 512 512" style="enable-background:new 0 0 512 512;" xml:space="preserve">
<style type="text/css">
	.st0{fill:#CCCCCC;}
</style>
<g>
	<g>
		<path class="st0" d="M458.7,0H323.3c-25.6,0-49.8,10-67.9,28.1L18.2,265.4C6.6,276.9,0,292.9,0,309.4c0,16.3,6.6,32.3,18.2,43.9
			l140.5,140.5c11.5,11.5,27.5,18.2,44,18.2c16.3,0,32.3-6.6,43.9-18.2l237.3-237.3c18.1-18.1,28.1-42.2,28.1-67.9V53.3
			C512,23.9,488.1,0,458.7,0z M394.7,170.7c-29.4,0-53.3-23.9-53.3-53.3c0-29.4,23.9-53.3,53.3-53.3S448,87.9,448,117.3
			C448,146.8,424.1,170.7,394.7,170.7z"/>
	</g>
</g>
</svg>
