<?xml version="1.0" encoding="utf-8"?>
<!-- Generator: Adobe Illustrator 25.3.1, SVG Export Plug-In . SVG Version: 6.00 Build 0)  -->
<svg version="1.1" id="레이어_1" xmlns="http://www.w3.org/2000/svg" xmlns:xlink="http://www.w3.org/1999/xlink" x="0px"
	 y="0px" viewBox="0 0 512 512" style="enable-background:new 0 0 512 512;" xml:space="preserve">
<style type="text/css">
	.st0{fill:#396AFC;}
</style>
<path class="st0" d="M423,39.3H87c-39.7,0-72,32.3-72,72v208c0,39.7,32.3,72,72,72h22.2l-14.1,70.4c-0.6,3,0.6,6.1,3.1,8
	s5.8,2.1,8.5,0.7l150.2-79h166c39.7,0,72-32.3,72-72v-208C495,71.5,462.7,39.3,423,39.3z M479,319.3c0,30.9-25.1,56-56,56H255
	c-1.3,0-2.6,0.3-3.7,0.9l-137.1,72.2l12.7-63.5c0.5-2.4-0.1-4.8-1.6-6.7c-1.5-1.9-3.8-2.9-6.2-2.9H87c-30.9,0-56-25.1-56-56v-208
	c0-30.9,25.1-56,56-56h336c30.9,0,56,25.1,56,56V319.3z"/>
</svg>
