<svg id="Layer_1" enable-background="new 0 0 512.007 512.007" height="512" viewBox="0 0 512.007 512.007" width="512" xmlns="http://www.w3.org/2000/svg"><g><path d="m235.318 172.262-121.724-152.259h-22.591l115.827 199.254c16.577 28.42 27.929 36.741 49.174 36.746 21.245-.005 32.596-8.326 49.174-36.746l11.798-20.295c-11.542.708-21.695 1.518-27.606 2.4-21.015 3.125-33.469-3.432-54.052-29.1z" fill="#cee1f2"/><path d="m438.294 30.055c5.551-9.549 2.31-21.791-7.24-27.342-9.549-5.551-21.791-2.31-27.342 7.24l-115.811 199.228c-15.643 26.819-21.763 26.82-31.893 26.823-10.139-.002-16.259-.004-31.887-26.797l-115.827-199.255c-5.551-9.549-17.793-12.79-27.342-7.24-9.549 5.551-12.791 17.793-7.24 27.342l115.842 199.28c6.153 10.55 12.204 19.504 18.929 26.67-6.729 7.171-12.784 16.132-18.944 26.693l-115.827 199.255c-5.551 9.55-2.31 21.791 7.24 27.342 3.163 1.838 6.62 2.712 10.033 2.712 6.891 0 13.597-3.565 17.31-9.952l115.812-199.229c15.643-26.818 21.763-26.82 31.893-26.822 10.139.002 16.259.004 31.933 26.875l44.205 75.254c5.595 9.523 17.85 12.71 27.375 7.115 9.524-5.595 12.709-17.851 7.115-27.375l-44.174-75.202c-6.154-10.549-12.204-19.503-18.929-26.67 6.729-7.171 12.784-16.132 18.944-26.693z" fill="#0023c4"/><path d="m421.022 512.007c-6.931 0-13.669-3.607-17.366-10.05l-35-61c-5.497-9.581-2.187-21.804 7.394-27.301 9.583-5.498 21.804-2.187 27.301 7.394l35 61c5.497 9.581 2.187 21.804-7.394 27.301-3.138 1.8-6.56 2.656-9.935 2.656z" fill="#ff5cf4"/></g></svg>